<svg xmlns="http://www.w3.org/2000/svg" viewBox="0 0 166.46 30.99"><defs><style>.cls-1{fill:#fff;}</style></defs><title>logowhite</title><g id="Layer_2" data-name="Layer 2"><g id="Layer_1-2" data-name="Layer 1"><path class="cls-1" d="M3.61,11a9.46,9.46,0,0,1,16.58,6.25v12a1.81,1.81,0,0,1-3.61,0V17.26c0-3.61-3.06-6.25-6.8-6.25-2.72,0-5.1.77-6.17,3V29.25A1.76,1.76,0,0,1,1.79,31,1.76,1.76,0,0,1,0,29.25V11.48A3.62,3.62,0,0,1,3.61,7.86Z"/><path class="cls-1" d="M44.63,19.77C44.63,26,39.87,31,34,31S23.38,26,23.38,19.77,28.14,8.5,34,8.5,44.63,13.56,44.63,19.77Zm-3.61,0c0-4.51-3.44-8.12-7-8.12s-7,3.61-7,8.12,3.45,8.07,7,8.07S41,24.23,41,19.77Z"/><path class="cls-1" d="M79.74,8.12a3.64,3.64,0,0,1,2.09,4.12l0,0L74.05,29.72a1.8,1.8,0,0,1-3.32,0L64.61,14.58,57.72,29.89a1.8,1.8,0,0,1-3.31,0L46.67,10.76a1.83,1.83,0,0,1,3.4-1.36l6.08,15.17L63.08,9.05a1.92,1.92,0,0,1,.94-.8,1.81,1.81,0,0,1,2.38,1L72.48,24.4l6.07-13.6Z"/><path class="cls-1" d="M88.41,12c1.7-1.91,4.17-3.62,6.93-3.62a9.23,9.23,0,0,1,9.23,9.23V29.21A1.76,1.76,0,0,1,102.82,31,1.8,1.8,0,0,1,101,29.21V17.6a6.4,6.4,0,0,0-6.59-6.29,6.61,6.61,0,0,0-6,3.61V29.21A1.76,1.76,0,0,1,86.67,31a1.8,1.8,0,0,1-1.79-1.78V3.53A3.52,3.52,0,0,1,88.41,0Z"/><path class="cls-1" d="M125,28.61A10.33,10.33,0,0,1,118.42,31c-5.91,0-10.67-5.06-10.67-11.31s4-11.31,9.82-11.31c5.23,0,8.21,4,8.84,9.23a1.36,1.36,0,0,1,.09.47,1.44,1.44,0,0,1-.68,1.23,1.34,1.34,0,0,1-.81.3H111.54v.08c0,4.51,3.27,8.12,7.26,8.12a6.67,6.67,0,0,0,4.34-1.61h0a1.64,1.64,0,0,1,.9-.3,1.51,1.51,0,0,1,1.48,1.53,1.44,1.44,0,0,1-.55,1.15Zm-1.91-12c-.72-2.93-2.55-5.19-5.57-5.19s-4.89,2.26-5.65,5.19Z"/><path class="cls-1" d="M133.3,11.73a9.44,9.44,0,0,1,7.14-3.27,9.23,9.23,0,0,1,3.87.85,1.65,1.65,0,0,1,1.27,1.62,1.7,1.7,0,0,1-1.7,1.7,1.68,1.68,0,0,1-1-.34h0a7.19,7.19,0,0,0-3.44-.9c-2.77,0-5.11,1.11-6.21,3.36V29.16a1.81,1.81,0,1,1-3.61,0h0V11.73a3.59,3.59,0,0,1,3.57-3.36Z"/><path class="cls-1" d="M165,28.61A10.33,10.33,0,0,1,158.38,31c-5.91,0-10.67-5.06-10.67-11.31s3.95-11.31,9.82-11.31c5.23,0,8.2,4,8.84,9.23a1.64,1.64,0,0,1,.09.47,1.43,1.43,0,0,1-.69,1.23,1.31,1.31,0,0,1-.8.3H151.49v.08c0,4.51,3.27,8.12,7.27,8.12a6.67,6.67,0,0,0,4.34-1.61h0a1.58,1.58,0,0,1,.89-.3,1.52,1.52,0,0,1,1.49,1.53,1.44,1.44,0,0,1-.55,1.15Zm-1.92-12c-.72-2.93-2.55-5.19-5.57-5.19s-4.88,2.26-5.65,5.19Z"/></g></g></svg>